<svg width="54" height="21" viewBox="0 0 54 21" fill="none" xmlns="http://www.w3.org/2000/svg">
<g id="Group 803">
<path id="Vector" d="M18.75 0H2.25C1.65326 0 1.08097 0.237053 0.65901 0.65901C0.237053 1.08097 0 1.65326 0 2.25L0 18.75C0 19.3467 0.237053 19.919 0.65901 20.341C1.08097 20.7629 1.65326 21 2.25 21H8.68359V13.8605H5.73047V10.5H8.68359V7.93875C8.68359 5.02547 10.418 3.41625 13.0744 3.41625C14.3466 3.41625 15.6769 3.64312 15.6769 3.64312V6.5025H14.2111C12.7669 6.5025 12.3164 7.39875 12.3164 8.31797V10.5H15.5405L15.0248 13.8605H12.3164V21H18.75C19.3467 21 19.919 20.7629 20.341 20.341C20.7629 19.919 21 19.3467 21 18.75V2.25C21 1.65326 20.7629 1.08097 20.341 0.65901C19.919 0.237053 19.3467 0 18.75 0Z" fill="#DFC5AA"/>
<path id="Vector_2" d="M42.9398 5.11587C39.9603 5.11587 37.5569 7.51975 37.5569 10.5C37.5569 13.4803 39.9603 15.8841 42.9398 15.8841C45.9194 15.8841 48.3228 13.4803 48.3228 10.5C48.3228 7.51975 45.9194 5.11587 42.9398 5.11587ZM42.9398 14.0004C41.0144 14.0004 39.4402 12.4306 39.4402 10.5C39.4402 8.5694 41.0097 6.99961 42.9398 6.99961C44.87 6.99961 46.4395 8.5694 46.4395 10.5C46.4395 12.4306 44.8653 14.0004 42.9398 14.0004ZM49.7985 4.89563C49.7985 5.59383 49.2363 6.15146 48.543 6.15146C47.8449 6.15146 47.2874 5.58914 47.2874 4.89563C47.2874 4.20211 47.8496 3.6398 48.543 3.6398C49.2363 3.6398 49.7985 4.20211 49.7985 4.89563ZM53.3637 6.1702C53.2841 4.48795 52.8999 2.99782 51.6678 1.77011C50.4403 0.542396 48.9506 0.15815 47.2687 0.0738034C45.5353 -0.0246011 40.3397 -0.0246011 38.6063 0.0738034C36.9291 0.153464 35.4393 0.537711 34.2072 1.76542C32.9751 2.99314 32.5956 4.48326 32.5113 6.16551C32.4129 7.89931 32.4129 13.096 32.5113 14.8298C32.5909 16.512 32.9751 18.0022 34.2072 19.2299C35.4393 20.4576 36.9244 20.8419 38.6063 20.9262C40.3397 21.0246 45.5353 21.0246 47.2687 20.9262C48.9506 20.8465 50.4403 20.4623 51.6678 19.2299C52.8952 18.0022 53.2794 16.512 53.3637 14.8298C53.4621 13.096 53.4621 7.90399 53.3637 6.1702ZM51.1243 16.6901C50.7589 17.6086 50.0515 18.3161 49.1286 18.6863C47.7465 19.2346 44.4671 19.1081 42.9398 19.1081C41.4126 19.1081 38.1285 19.2299 36.7511 18.6863C35.8329 18.3208 35.1255 17.6132 34.7553 16.6901C34.2072 15.3078 34.3337 12.0276 34.3337 10.5C34.3337 8.97239 34.2119 5.68755 34.7553 4.30989C35.1208 3.39144 35.8282 2.68387 36.7511 2.31368C38.1331 1.76542 41.4126 1.89194 42.9398 1.89194C44.4671 1.89194 47.7512 1.77011 49.1286 2.31368C50.0468 2.67918 50.7542 3.38676 51.1243 4.30989C51.6725 5.69223 51.546 8.97239 51.546 10.5C51.546 12.0276 51.6725 15.3125 51.1243 16.6901Z" fill="#DFC5AA"/>
</g>
</svg>
