<svg width="125" height="65" viewBox="0 0 125 65" fill="none" xmlns="http://www.w3.org/2000/svg">
<g id="logo Bliss" clip-path="url(#clip0_3334_4291)">
<path id="Vector" d="M60.3896 62.5583V34.0254L58.3945 32.1182H69.9047L67.9096 34.0254V62.5583V64.9996H60.3896V62.5583Z" fill="white"/>
<path id="Vector_2" d="M99.4479 65.0005V54.0145L110.651 64.085H113.49C117.02 64.085 119.475 63.7035 119.475 60.7282C119.475 58.5157 117.557 56.3796 114.027 54.0908L107.735 50.1237C102.517 46.9195 98.834 44.0967 98.834 39.4429C98.834 33.6448 104.666 31.585 111.111 31.585H122.315V42.5709C122.315 42.5709 113.567 34.2551 111.572 32.5767C107.889 32.5767 104.512 33.7974 104.282 36.315C104.052 38.6037 104.436 39.8244 110.114 43.7152L117.25 48.4453C121.471 51.1155 124.924 53.6331 124.924 57.3713C124.924 63.7035 120.55 64.9242 112.262 64.9242H99.4479V65.0005Z" fill="white"/>
<path id="Vector_3" d="M71.209 65.0005V54.0145L82.4889 64.085H85.3281C88.8579 64.085 91.3134 63.7035 91.3134 60.7282C91.3134 58.5157 89.395 56.3796 85.8652 54.0908L79.573 50.1237C74.3551 46.9195 70.6719 44.0967 70.6719 39.4429C70.6719 33.6448 76.5037 31.585 82.9493 31.585H94.1525V42.5709C94.1525 42.5709 85.4048 34.2551 83.4098 32.5767C79.7265 32.5767 76.3502 33.7974 76.12 36.315C75.8898 38.6037 76.2735 39.8244 81.9518 43.7152L89.0881 48.4453C93.3085 51.1155 96.7615 53.6331 96.7615 57.3713C96.7615 63.7035 92.3877 64.9242 84.1004 64.9242H71.209V65.0005Z" fill="white"/>
<path id="Vector_4" d="M28.8521 56.0738C28.8521 61.4905 23.6341 64.9999 15.9607 64.9999H0L2.53223 63.1689V33.7968L0 31.9658H13.9656C22.2529 31.9658 27.1639 34.4834 27.1639 39.5186C27.1639 43.4095 24.4782 46.0034 17.8791 47.3003C24.4782 47.7581 28.8521 50.886 28.8521 56.0738ZM9.2081 32.6524V46.9952H12.5077C15.884 46.9952 20.0276 44.4776 20.0276 39.8238C20.0276 35.8567 16.3444 32.6524 12.4309 32.6524H9.2081ZM21.7925 56.2264C21.7925 50.5046 16.4979 47.7581 12.9681 47.7581H9.2081V64.3132H12.5844C17.2652 64.3132 21.7925 61.643 21.7925 56.2264Z" fill="white"/>
<path id="Vector_5" d="M57.0908 65H29.2363L31.7686 63.169V33.7969L29.3131 31.8896H38.6746V33.7969V64.1608H45.2738C45.2738 64.1608 51.8729 58.5915 57.0908 54.1666V65Z" fill="white"/>
<g id="Group">
<g id="Clip path group">
<mask id="mask0_3334_4291" style="mask-type:luminance" maskUnits="userSpaceOnUse" x="59" y="0" width="10" height="21">
<g id="SVGID_2_">
<path id="Vector_6" d="M59.9297 11.1385C59.9297 11.4437 59.9297 11.7488 59.9297 12.054C60.3901 12.4354 60.7738 12.7406 61.2342 13.1984C63.6129 15.5634 64.9174 18.4624 65.608 20.8275C66.9125 18.9202 68.9843 15.3345 68.9843 11.2148C68.9843 4.95892 64.457 0 64.457 0C64.457 0 59.9297 4.95892 59.9297 11.1385Z" fill="white"/>
</g>
</mask>
<g mask="url(#mask0_3334_4291)">
<path id="Vector_7" d="M68.9843 0H59.9297V20.7512H68.9843V0Z" fill="white"/>
</g>
</g>
</g>
<g id="Group_2">
<g id="Clip path group_2">
<mask id="mask1_3334_4291" style="mask-type:luminance" maskUnits="userSpaceOnUse" x="42" y="19" width="23" height="10">
<g id="SVGID_5_">
<path id="Vector_8" d="M42.5117 21.8192C42.5117 21.8192 46.5019 27.2359 52.5639 28.4566C58.6259 29.6772 64.4577 26.3204 64.4577 26.3204C64.4577 26.3204 60.4675 20.9038 54.4055 19.6831C53.4847 19.4542 52.5639 19.3779 51.6431 19.3779C46.7321 19.3779 42.5117 21.8192 42.5117 21.8192Z" fill="white"/>
</g>
</mask>
<g mask="url(#mask1_3334_4291)">
<path id="Vector_9" d="M64.4577 19.3779H42.5117V29.6772H64.4577V19.3779Z" fill="white"/>
</g>
</g>
</g>
<g id="Group_3">
<g id="Clip path group_3">
<mask id="mask2_3334_4291" style="mask-type:luminance" maskUnits="userSpaceOnUse" x="65" y="19" width="21" height="10">
<g id="SVGID_8_">
<path id="Vector_10" d="M75.584 21.8191C72.8215 24.5656 66.9897 26.778 66.9897 26.778L65.9922 27.3884C68.2175 28.2276 71.824 29.2194 75.5072 28.4564C81.5692 27.2358 85.5594 21.8191 85.5594 21.8191C85.5594 21.8191 82.0296 19.7593 77.5791 19.4541C76.9652 20.2933 76.2746 21.0562 75.584 21.8191Z" fill="white"/>
</g>
</mask>
<g mask="url(#mask2_3334_4291)">
<path id="Vector_11" d="M85.4832 19.4541H65.916V29.2194H85.4832V19.4541Z" fill="white"/>
</g>
</g>
</g>
<g id="Group_4">
<g id="Clip path group_4">
<mask id="mask3_3334_4291" style="mask-type:luminance" maskUnits="userSpaceOnUse" x="64" y="9" width="16" height="17">
<g id="SVGID_11_">
<path id="Vector_12" d="M70.5963 12.2825C70.1359 18.4621 65.9155 23.1921 65.6853 23.421L64.918 24.2602C65.2249 24.5654 65.4551 24.8705 65.6086 25.0231C67.9873 24.5654 71.6706 23.421 74.433 20.6745C78.8069 16.3259 79.1905 9.6123 79.1905 9.6123C79.1905 9.6123 74.6632 9.84118 70.5963 12.2825Z" fill="white"/>
</g>
</mask>
<g mask="url(#mask3_3334_4291)">
<path id="Vector_13" d="M79.1138 9.6123H64.918V25.0231H79.1138V9.6123Z" fill="white"/>
</g>
</g>
</g>
<g id="Group_5">
<g id="Clip path group_5">
<mask id="mask4_3334_4291" style="mask-type:luminance" maskUnits="userSpaceOnUse" x="49" y="9" width="16" height="15">
<g id="SVGID_14_">
<path id="Vector_14" d="M51.4887 17.7754C52.563 17.7754 53.6373 17.8517 54.7883 18.0806C59.4691 19.0724 62.9221 22.124 64.687 23.955C64.3033 21.7426 63.229 17.394 60.1597 14.3424C55.7858 9.99376 49.0332 9.6123 49.0332 9.6123C49.0332 9.6123 49.1867 13.8083 51.4887 17.7754Z" fill="white"/>
</g>
</mask>
<g mask="url(#mask4_3334_4291)">
<path id="Vector_15" d="M64.6108 9.6123H48.957V23.955H64.6108V9.6123Z" fill="white"/>
</g>
</g>
</g>
</g>
<defs>
<clipPath id="clip0_3334_4291">
<rect width="125" height="65" fill="white"/>
</clipPath>
</defs>
</svg>
